<?xml version="1.0" encoding="utf-8"?><!--Generator: Adobe Illustrator 24.0.0, SVG Export Plug-In . SVG Version: 6.00 Build 0)--><svg version="1.1" id="Calque_1" xmlns="http://www.w3.org/2000/svg" xmlns:xlink="http://www.w3.org/1999/xlink" x="0px" y="0px" viewBox="0 0 652 141.7" style="enable-background:new 0 0 652 141.7" xml:space="preserve"><style type="text/css">.st0{fill:#1652A1;}
	.st1{fill:#00ABE7;}
	.st2{fill:#6DCAF3;}
	.st3{fill:#647EBE;}</style><g><path class="st0" d="M40.3,55.3h42.5v11.6H53.7v17.4h24.5v11.6H53.7v27.4H40.3V55.3z"/><path class="st0" d="M90.1,70.1h12.7v9.2c0,2-0.2,3.7-0.2,3.7h0.2c2.4-7.6,8.7-13.6,16.9-13.6c1.2,0,2.4,0.2,2.4,0.2v13
		c0,0-1.4-0.2-3.1-0.2c-5.6,0-12,3.2-14.5,11.1c-0.8,2.6-1.1,5.5-1.1,8.6v21H90.1V70.1z"/><path class="st0" d="M151.9,68.8c15.3,0,23.5,11.1,23.5,25.2c0,1.6-0.3,5.1-0.3,5.1h-36.7c0.8,9.3,8,14.1,15.9,14.1
		c8.5,0,15.3-5.8,15.3-5.8l5.1,9.5c0,0-8.1,7.6-21.3,7.6c-17.6,0-28.5-12.7-28.5-27.8C124.9,80.3,136.1,68.8,151.9,68.8z
		 M162.1,90.1c-0.2-7.2-4.7-11-10.5-11c-6.8,0-11.5,4.2-12.7,11H162.1z"/><path class="st1" d="M445.9,68.8c15.3,0,23.5,11.1,23.5,25.2c0,1.6-0.3,5.1-0.3,5.1h-36.7c0.8,9.3,8,14.1,15.9,14.1
		c8.5,0,15.3-5.8,15.3-5.8l5.1,9.5c0,0-8.1,7.6-21.3,7.6c-17.6,0-28.5-12.7-28.5-27.8C419,80.3,430.1,68.8,445.9,68.8z M456.1,90.1
		c-0.2-7.2-4.7-11-10.5-11c-6.8,0-11.5,4.2-12.7,11H456.1z"/><path class="st1" d="M503.1,68.8c15.3,0,23.5,11.1,23.5,25.2c0,1.6-0.3,5.1-0.3,5.1h-36.7c0.8,9.3,8,14.1,15.9,14.1
		c8.5,0,15.3-5.8,15.3-5.8l5.1,9.5c0,0-8.1,7.6-21.3,7.6c-17.6,0-28.5-12.7-28.5-27.8C476.1,80.3,487.2,68.8,503.1,68.8z
		 M513.3,90.1c-0.2-7.2-4.7-11-10.5-11c-6.8,0-11.5,4.2-12.7,11H513.3z"/><path class="st0" d="M184,70.1h12.7v6.1c0,2-0.2,3.6-0.2,3.6h0.2c2.3-4.5,8.1-11,18.8-11C227.4,68.8,234,75,234,89v34.2h-13.1V91.8
		c0-6.5-1.7-10.8-8.4-10.8c-7.1,0-12.3,4.5-14.3,10.8c-0.7,2.2-0.9,4.6-0.9,7.1v24.4H184V70.1z"/><path class="st0" d="M269.3,68.8c13.9,0,20.4,7.9,20.4,7.9l-5.8,9.1c0,0-5.5-5.7-13.9-5.7c-9.8,0-16.1,7.4-16.1,16.5
		c0,9,6.5,16.7,16.6,16.7c9,0,15.6-6.8,15.6-6.8l5.1,9.4c0,0-7.6,8.6-21.9,8.6c-17.6,0-28.8-12.4-28.8-27.8
		C240.5,81.6,251.7,68.8,269.3,68.8z"/><path class="st0" d="M297,55.3h13.2v19.6c0,2.6-0.2,4.5-0.2,4.5h0.2c2.6-5.1,9.1-10.5,18.3-10.5C340.3,68.8,347,75,347,89v34.2
		h-13.1V91.8c0-6.5-1.7-10.8-8.4-10.8c-7,0-12.4,4.6-14.4,11c-0.6,2.1-0.8,4.4-0.8,6.9v24.4H297V55.3z"/><path class="st1" d="M359.7,55.3h13.2v16.8c0,2.6-0.2,4.5-0.2,4.5h0.2c0,0,4.7-7.7,15.9-7.7c14.4,0,23.5,11.4,23.5,27.8
		c0,16.9-10.3,27.8-24.4,27.8c-11,0-15.8-7.9-15.8-7.9H372c0,0,0.2,1.6,0.2,3.6v3h-12.5V55.3z M385.7,113.3
		c7.3,0,13.3-5.9,13.3-16.5c0-10.1-5.4-16.7-13.2-16.7c-6.9,0-13.3,5-13.3,16.8C372.5,105.2,376.8,113.3,385.7,113.3z"/><g><path class="st1" d="M571.4,67.1c-15.8-22.9-18.3-55.3-1.8-49.7C586.2,23.1,609.7,40.1,571.4,67.1z"/><path class="st0" d="M571.4,67.1c-15.7,10.4-37.1,11.2-34.6,1.7C539.3,58.8,549.5,43.3,571.4,67.1z"/><path class="st2" d="M572.6,68.9c4.9,8.4,17,11.8,26.1,2.9C611.2,59.6,629.4,33.3,572.6,68.9z"/><path class="st3" d="M572.6,68.9c-12.3,8.2-22.2,21.5-16.2,21.4C562.4,90.1,577.1,82,572.6,68.9z"/></g></g></svg>